<?xml version="1.0" standalone="no"?>
<!DOCTYPE svg PUBLIC "-//W3C//DTD SVG 20010904//EN"
 "http://www.w3.org/TR/2001/REC-SVG-20010904/DTD/svg10.dtd">
<svg version="1.0" xmlns="http://www.w3.org/2000/svg"
 width="260.000000pt" height="260.000000pt" viewBox="0 0 260.000000 260.000000"
 preserveAspectRatio="xMidYMid meet">
<metadata>
Created by potrace 1.11, written by Peter Selinger 2001-2013
</metadata>
<g transform="translate(0.000000,260.000000) scale(0.100000,-0.100000)"
fill="#000000" stroke="none">
<path d="M0 2582 c0 -10 12 -31 28 -48 15 -16 74 -80 131 -141 76 -83 110
-113 127 -113 l24 0 0 -553 0 -554 115 -1 c75 0 117 4 123 11 5 7 8 73 7 147
-1 74 2 143 7 152 4 9 4 19 0 22 -4 2 -7 24 -6 48 3 63 3 63 15 51 6 -6 23 -8
42 -3 18 4 41 4 52 0 11 -4 33 -4 50 0 17 4 39 5 50 3 11 -2 40 -4 65 -4 84 0
134 -28 146 -80 3 -13 7 -69 9 -124 5 -123 10 -162 23 -196 l10 -26 134 1
c128 1 133 2 136 23 2 14 -3 23 -17 28 -21 6 -23 12 -25 88 0 20 -4 37 -8 37
-5 0 -8 5 -8 11 0 5 3 8 8 6 4 -3 7 14 7 38 0 24 -2 42 -5 40 -3 -2 -6 23 -6
56 1 35 -4 65 -11 71 -6 5 -10 15 -7 22 6 15 -70 96 -91 96 -9 0 -12 6 -9 15
4 8 12 15 19 15 22 0 81 62 106 110 19 36 24 62 26 133 1 48 -2 87 -6 87 -5 0
-11 12 -14 28 -3 15 -15 38 -26 52 -41 49 -85 90 -97 90 -6 0 -17 6 -23 14
-10 12 -34 20 -106 34 -11 2 -164 5 -340 7 -176 2 -326 4 -332 4 -7 1 -13 13
-13 27 0 18 -18 45 -58 88 -32 33 -87 93 -123 133 -53 59 -69 71 -96 72 -26 1
-33 -3 -33 -17z m925 -515 c11 -6 27 -13 34 -17 53 -24 76 -139 38 -193 -18
-26 -67 -59 -84 -56 -4 1 -10 0 -13 -1 -17 -6 -50 -5 -50 2 0 5 -5 6 -12 2
-17 -10 -58 -11 -64 -2 -3 5 -11 5 -17 1 -19 -12 -77 -11 -77 1 0 8 -3 8 -8 1
-9 -14 -65 -14 -74 0 -5 7 -8 6 -8 -1 0 -6 -7 -11 -15 -11 -18 0 -17 -3 -19
107 -1 47 2 93 6 102 4 9 4 19 -1 22 -5 4 -8 14 -6 24 2 9 4 20 4 24 1 10 344
6 366 -5z"/>
<path d="M1644 1279 c-11 -4 -31 -8 -46 -8 -16 -1 -28 -5 -28 -9 0 -5 -6 -9
-14 -9 -20 0 -113 -41 -138 -61 -40 -32 -144 -142 -134 -142 2 0 -6 -21 -19
-47 -13 -25 -22 -50 -19 -55 3 -4 0 -8 -5 -8 -6 0 -10 -3 -10 -7 5 -29 -3 -63
-12 -57 -7 4 -7 -1 1 -16 7 -12 8 -20 2 -16 -13 8 -13 -175 0 -191 5 -7 5 -14
-1 -18 -7 -4 -7 -12 -2 -23 12 -22 23 -52 28 -76 6 -31 51 -116 68 -128 6 -4
6 -8 2 -8 -12 0 111 -106 137 -118 11 -5 32 -15 46 -21 14 -7 32 -13 40 -14 8
-2 20 -6 26 -10 32 -19 289 -31 312 -14 7 6 15 7 18 4 7 -6 111 30 130 44 6 5
13 7 16 4 3 -3 13 4 23 15 10 11 22 20 27 20 13 0 76 68 107 115 14 22 30 43
34 46 5 3 8 9 8 13 -2 24 13 65 23 59 6 -4 4 2 -4 12 -9 11 -10 16 -2 11 7 -4
12 -1 12 8 0 14 -18 16 -124 16 l-124 0 -16 -41 c-25 -63 -95 -126 -151 -136
-81 -15 -158 -12 -210 8 -31 12 -59 27 -62 35 -3 8 -12 14 -21 14 -8 0 -13 3
-10 6 3 3 -5 17 -19 32 -13 14 -27 39 -30 54 -3 15 -8 28 -12 28 -4 0 -8 14
-9 31 -1 17 -7 39 -12 50 -7 12 -7 20 0 24 6 4 8 11 4 16 -11 19 -15 61 -4 54
7 -4 7 2 0 19 -5 14 -6 26 -2 26 4 0 8 12 9 28 5 53 23 112 34 112 5 0 9 7 9
15 0 28 97 111 137 118 10 1 23 6 28 9 11 7 155 4 188 -4 9 -2 23 -10 29 -16
7 -7 17 -12 23 -12 20 -1 85 -86 85 -113 0 -20 20 -23 135 -21 132 2 125 1
125 25 0 11 -4 18 -9 15 -4 -3 -7 6 -5 19 1 14 -2 25 -7 25 -6 0 -7 5 -4 10 3
6 1 10 -5 10 -6 0 -9 4 -6 9 3 5 -1 14 -9 21 -8 7 -15 17 -15 22 0 26 -150
155 -164 141 -3 -3 -6 -1 -6 6 0 7 -4 10 -9 6 -5 -3 -12 -1 -16 5 -4 6 -11 8
-16 5 -5 -4 -9 -1 -9 6 0 7 -3 9 -6 6 -4 -3 -14 -2 -23 2 -40 21 -276 36 -317
20z"/>
<path d="M2190 370 c0 -12 66 -86 175 -195 149 -149 179 -175 205 -175 26 0
30 4 30 28 0 23 -30 59 -166 195 -158 159 -168 167 -205 167 -32 0 -39 -3 -39
-20z"/>
</g>
</svg>
